<svg width="187" height="186" viewBox="0 0 187 186" fill="none" xmlns="http://www.w3.org/2000/svg">
<path d="M171.982 92.9784C171.2 102.057 168.634 110.893 164.432 118.978C159.904 127.728 153.679 135.489 146.122 141.808C133.414 152.622 117.307 158.619 100.622 158.748C98.4285 158.748 96.2718 158.642 94.1518 158.428C91.985 158.215 89.8317 157.881 87.7018 157.428C58.1318 151.428 37.7018 124.828 40.4318 92.9585C43.1618 61.0884 68.0518 34.5384 98.6618 28.4984C102.988 27.6315 107.39 27.196 111.802 27.1984C125.813 27.0568 139.442 31.7704 150.372 40.5384C165.182 52.5684 173.802 71.5784 171.982 92.9784Z" fill="black" stroke="black" stroke-linejoin="round"/>
<path d="M164.431 118.969C159.904 127.722 153.68 135.486 146.121 141.809H114.781L116.721 118.969H164.431Z" fill="#FFCC5F" stroke="black" stroke-linejoin="round"/>
<path d="M171.983 92.9825H117.203L121.653 40.5625H150.363C165.183 52.5725 173.803 71.5825 171.983 92.9825Z" fill="#FFCC5F" stroke="black" stroke-linejoin="round"/>
<path d="M87.6894 157.453C89.8193 157.905 91.9726 158.239 94.1394 158.453H87.6094L87.6894 157.453Z" fill="white" stroke="black" stroke-linejoin="round"/>
<path d="M136.716 138.573C164.123 112.391 166.846 70.7578 142.796 45.5828C118.747 20.4077 77.0329 21.224 49.6255 47.4059C22.2181 73.5879 19.4959 115.221 43.5453 140.396C67.5946 165.571 109.309 164.755 136.716 138.573Z" fill="#FFCC5F" stroke="black" stroke-linejoin="round"/>
<path d="M112.2 85.5813C108.751 83.6912 105.11 82.1726 101.34 81.0512C99.9503 80.6012 98.6803 80.1812 97.5003 79.8112L98.2603 70.8912C99.2404 71.0606 100.209 71.2911 101.16 71.5812C103.149 72.1956 105.097 72.9371 106.99 73.8012C108.997 74.754 110.947 75.8225 112.83 77.0013L122.46 61.1313C120.46 60.0813 118.09 58.9613 115.4 57.7812C112.577 56.5527 109.662 55.5496 106.68 54.7812C104.846 54.3041 102.977 53.9697 101.09 53.7812L101.94 43.7812H94.0503L93.2003 53.7812C89.9468 54.129 86.7662 54.9756 83.7703 56.2912C79.7299 58.0303 76.1914 60.7572 73.4803 64.2213C70.6458 67.9901 68.9897 72.5132 68.7203 77.2212C68.3686 80.1799 68.7569 83.1796 69.8503 85.9513C71.0016 88.4761 72.8378 90.6275 75.1503 92.1612C78.1426 94.1531 81.3925 95.7276 84.8103 96.8412C86.937 97.5612 88.9203 98.2046 90.7603 98.7713L90.0303 107.421C88.6361 107.222 87.2589 106.917 85.9103 106.511C83.5159 105.794 81.1765 104.905 78.9103 103.851C76.5419 102.707 74.2444 101.421 72.0303 100.001L62.3203 116.861C65.1678 118.591 68.1832 120.029 71.3203 121.151C74.6904 122.384 78.1551 123.34 81.6803 124.011C83.5503 124.371 85.3803 124.631 87.1903 124.801L86.1903 136.881H94.0803L95.0803 124.931C97.3669 124.782 99.6376 124.447 101.87 123.931C105.024 123.206 108.032 121.956 110.77 120.231C113.505 118.502 115.797 116.156 117.46 113.381C119.338 110.147 120.424 106.515 120.63 102.781C121.01 98.3812 120.457 94.8479 118.97 92.1812C117.375 89.3914 115.03 87.1048 112.2 85.5813ZM90.2003 76.9112C89.7456 76.5852 89.3834 76.1467 89.1491 75.6386C88.9149 75.1305 88.8166 74.5702 88.864 74.0127C88.9113 73.4552 89.1027 72.9196 89.4194 72.4583C89.736 71.997 90.1671 71.6259 90.6703 71.3813C91.4466 71.0245 92.2728 70.7885 93.1203 70.6812L92.4903 78.0912C91.7024 77.7817 90.9512 77.3859 90.2503 76.9112H90.2003ZM99.6803 104.611C99.6423 105.069 99.493 105.51 99.2455 105.897C98.9981 106.284 98.6599 106.605 98.2603 106.831C97.28 107.35 96.1892 107.624 95.0803 107.631L95.7003 100.441C96.4109 100.737 97.1052 101.071 97.7803 101.441C98.398 101.697 98.9193 102.141 99.2695 102.71C99.6197 103.279 99.781 103.945 99.7303 104.611H99.6803Z" fill="#FFCC5F" stroke="black" stroke-linejoin="round"/>
<path d="M111.792 27.2188C107.38 27.2164 102.979 27.6518 98.6523 28.5187L98.7623 27.2188H111.792Z" fill="white" stroke="black" stroke-linejoin="round"/>
</svg>
