<svg width="437" height="612" viewBox="0 0 437 612" fill="none" xmlns="http://www.w3.org/2000/svg">
<path d="M336.884 568.516C327.437 567.535 317.991 566.557 308.545 565.576C318.799 467.132 272.332 369.996 186.707 316.668C191.729 308.607 196.748 300.546 201.77 292.484C296.721 351.622 348.254 459.346 336.884 568.516Z" fill="#F4D42C" stroke="#1B1B1B" stroke-miterlimit="10"/>
<path d="M336.886 568.517C327.439 567.536 317.993 566.558 308.547 565.577C310.491 546.916 310.397 528.301 308.383 510.027C317.823 508.99 327.264 507.951 336.704 506.914C338.935 527.18 339.041 547.823 336.886 568.517Z" fill="#5FBCE1" stroke="#1B1B1B" stroke-miterlimit="10"/>
<path d="M339.599 506.594C328.226 507.845 316.856 509.095 305.483 510.345C305.076 506.658 304.592 502.984 304.027 499.329C315.336 497.593 326.644 495.854 337.95 494.117C338.588 498.258 339.139 502.419 339.599 506.594Z" fill="#32639E" stroke="#1B1B1B" stroke-miterlimit="10"/>
<path d="M300.694 585.179C300.882 584.362 349.677 606.118 385.301 602.824C385.306 602.836 385.309 602.847 385.315 602.859C379.207 608.791 371.857 611.178 364.941 611.33C357.164 611.5 349.776 609.119 342.45 606.871C336.351 604.979 330.266 603.123 324.152 601.289C315.874 598.827 307.048 595.735 302.188 587.996C301.611 587.108 301.128 586.171 300.668 585.196C300.677 585.19 300.686 585.185 300.694 585.179Z" fill="white"/>
<path d="M332.082 565.664C332.29 565.863 343.361 545.647 353.209 546.371C353.215 546.371 353.223 546.371 353.229 546.371C354.535 546.997 355.812 547.887 357.05 549.05C351.109 553.808 347.37 564.803 340.088 566.124C336.366 566.847 333.801 566.551 332.082 565.664Z" fill="white"/>
<path d="M353.21 546.373C343.362 545.65 332.294 565.866 332.083 565.667C325.688 562.454 330.66 551.09 330.824 550.636C330.859 550.786 342.572 541.389 353.21 546.373Z" fill="white"/>
<path d="M355.967 520.903C355.41 529.439 354.497 537.936 353.232 546.372C353.226 546.372 353.217 546.372 353.211 546.372C342.573 541.386 330.863 550.785 330.825 550.636C330.831 550.478 328.114 550.126 324.486 549.775C323.411 540.859 321.9 532.109 319.988 523.55C320.023 523.861 339.39 512.637 355.967 520.903Z" fill="#E83D3D"/>
<path d="M395.545 568.906C397.97 579.568 394.098 592.622 387.589 600.369C386.851 601.265 386.11 602.053 385.317 602.864C385.311 602.853 385.308 602.841 385.302 602.829C349.675 606.123 300.883 584.364 300.696 585.184C300.687 585.19 300.678 585.196 300.67 585.204C298.301 579.84 297.785 573.492 298.769 567.589C299.949 560.64 303.036 554.151 306.81 548.266C306.81 548.266 317.381 549.048 324.484 549.777C328.109 550.131 330.83 550.479 330.824 550.638C330.657 551.091 325.688 562.456 332.083 565.668C333.802 566.552 336.367 566.848 340.091 566.13C347.374 564.81 351.113 553.815 357.054 549.056C358.059 548.228 359.16 547.624 360.36 547.253C368.626 544.746 377.505 546.702 384.895 552.38C389.595 556.008 393.873 561.39 395.545 568.906Z" fill="#E83D3D"/>
<path d="M300.67 585.204C298.301 579.84 297.785 573.492 298.769 567.589C299.949 560.64 303.036 554.151 306.81 548.266C306.81 548.266 317.381 549.048 324.484 549.777C328.109 550.131 330.83 550.479 330.824 550.638C330.657 551.091 325.688 562.456 332.083 565.668C333.802 566.552 336.367 566.848 340.091 566.13C347.374 564.81 351.113 553.815 357.054 549.056C358.059 548.228 359.16 547.624 360.36 547.253C368.626 544.746 377.505 546.702 384.895 552.38C389.598 556.011 393.876 561.393 395.548 568.909C397.972 579.571 394.101 592.625 387.592 600.372C386.854 601.269 386.113 602.056 385.32 602.867C379.212 608.8 371.862 611.186 364.946 611.338C357.169 611.508 349.781 609.128 342.454 606.879C336.355 604.987 330.27 603.131 324.156 601.298C315.879 598.835 307.053 595.743 302.192 588.004C301.61 587.117 301.126 586.18 300.67 585.204Z" stroke="#1B1B1B" stroke-miterlimit="10" stroke-linecap="round" stroke-linejoin="round"/>
<path d="M353.23 546.375C354.536 547.002 355.813 547.892 357.052 549.054" stroke="#1B1B1B" stroke-miterlimit="10" stroke-linecap="round" stroke-linejoin="round"/>
<path d="M330.824 550.637C330.859 550.787 342.572 541.387 353.21 546.374" stroke="#1B1B1B" stroke-miterlimit="10" stroke-linecap="round" stroke-linejoin="round"/>
<path d="M324.486 549.774C323.411 540.858 321.9 532.109 319.988 523.55C320.023 523.863 339.39 512.637 355.967 520.903C355.41 529.438 354.497 537.936 353.232 546.372C353.226 546.372 353.217 546.372 353.211 546.372C343.364 545.649 332.295 565.865 332.085 565.666" stroke="#1B1B1B" stroke-miterlimit="10" stroke-linecap="round" stroke-linejoin="round"/>
<path d="M300.695 585.187C300.883 584.37 349.678 606.126 385.302 602.832" stroke="#1B1B1B" stroke-miterlimit="10" stroke-linecap="round" stroke-linejoin="round"/>
<path d="M69.0237 496.907C64.8218 488.389 60.6199 479.874 56.418 471.356C145.2 427.603 202.668 336.54 202.199 235.671C211.695 235.627 221.191 235.583 230.688 235.539C231.209 347.404 167.48 448.39 69.0237 496.907Z" fill="#F4D42C" stroke="#1B1B1B" stroke-miterlimit="10"/>
<path d="M69.0237 496.908C64.8218 488.39 60.6199 479.875 56.418 471.357C73.2461 463.064 88.9528 453.07 103.348 441.633C109.254 449.07 115.16 456.508 121.066 463.945C105.102 476.63 87.6878 487.713 69.0237 496.908Z" fill="#5FBCE1" stroke="#1B1B1B" stroke-miterlimit="10"/>
<path d="M122.882 466.226C115.767 457.265 108.652 448.305 101.539 439.348C104.444 437.041 107.293 434.675 110.089 432.25C117.582 440.894 125.076 449.541 132.569 458.185C129.401 460.931 126.174 463.611 122.882 466.226Z" fill="#32639E" stroke="#1B1B1B" stroke-miterlimit="10"/>
<path d="M35.644 475.152C36.4375 474.877 44.0068 527.763 65.7689 556.16C65.7601 556.172 65.7543 556.181 65.7455 556.192C57.4734 554.184 51.5381 549.232 47.7256 543.458C43.4388 536.966 41.5208 529.446 39.5209 522.044C37.8723 515.874 36.2033 509.737 34.4991 503.585C32.1712 495.266 30.0922 486.151 34.054 477.917C34.4962 476.956 35.032 476.045 35.6147 475.141C35.6264 475.144 35.6352 475.147 35.644 475.152Z" fill="white"/>
<path d="M68.879 491.32C68.8234 491.601 91.8299 490.205 96.4594 498.925C96.4623 498.931 96.4681 498.937 96.4711 498.942C96.635 500.383 96.5618 501.935 96.2368 503.604C89.0453 501.109 77.7484 503.8 72.753 498.342C70.1615 495.575 69.0488 493.247 68.879 491.32Z" fill="white"/>
<path d="M96.4598 498.931C91.8275 490.211 68.8238 491.607 68.8795 491.326C68.1913 484.202 80.4574 482.357 80.9288 482.258C80.8205 482.366 95.0133 487.274 96.4598 498.931Z" fill="white"/>
<path d="M119.487 487.698C111.968 491.771 104.29 495.525 96.4749 498.948C96.472 498.942 96.4661 498.936 96.4632 498.93C95.0196 487.27 80.8268 482.366 80.9322 482.254C81.0698 482.175 79.9191 479.689 78.2852 476.43C85.26 470.773 91.8601 464.835 98.0854 458.656C97.8394 458.852 117.654 469.265 119.487 487.698Z" fill="#E83D3D"/>
<path d="M99.9342 546.767C92.201 554.497 79.0945 558.172 69.0685 556.79C67.9177 556.643 66.8548 556.436 65.748 556.196C65.7567 556.184 65.7626 556.175 65.7714 556.163C44.0093 527.766 36.4371 474.88 35.6465 475.156C35.6348 475.153 35.626 475.147 35.6172 475.144C38.8967 470.28 43.9917 466.465 49.5142 464.152C56.0235 461.452 63.1595 460.606 70.1519 460.667C70.1519 460.667 75.121 470.031 78.2864 476.432C79.9173 479.688 81.071 482.177 80.9334 482.256C80.462 482.356 68.1959 484.204 68.884 491.325C69.0509 493.252 70.1666 495.58 72.758 498.35C77.7534 503.808 89.0503 501.117 96.2418 503.612C97.4775 504.022 98.5727 504.634 99.5302 505.45C106.054 511.111 109.126 519.667 108.256 528.946C107.682 534.861 105.407 541.347 99.9342 546.767Z" fill="#E83D3D"/>
<path d="M35.6128 475.144C38.8923 470.28 43.9873 466.465 49.5098 464.152C56.0191 461.452 63.1551 460.606 70.1475 460.667C70.1475 460.667 75.1166 470.031 78.2819 476.432C79.9129 479.688 81.0666 482.177 80.929 482.256C80.4576 482.356 68.1915 484.204 68.8796 491.325C69.0465 493.252 70.1622 495.58 72.7536 498.35C77.749 503.808 89.0459 501.117 96.2374 503.612C97.4731 504.022 98.5682 504.634 99.5257 505.45C106.05 511.111 109.121 519.667 108.252 528.946C107.684 534.861 105.406 541.347 99.9357 546.767C92.2024 554.497 79.096 558.172 69.0699 556.79C67.9192 556.643 66.8563 556.436 65.7494 556.196C57.4774 554.187 51.542 549.235 47.7295 543.461C43.4427 536.969 41.5247 529.45 39.5248 522.047C37.8762 515.878 36.2072 509.74 34.503 503.588C32.1751 495.269 30.0961 486.154 34.0579 477.92C34.4971 476.956 35.0301 476.049 35.6128 475.144Z" stroke="#1B1B1B" stroke-miterlimit="10" stroke-linecap="round" stroke-linejoin="round"/>
<path d="M96.4725 498.953C96.6365 500.394 96.5633 501.946 96.2383 503.615" stroke="#1B1B1B" stroke-miterlimit="10" stroke-linecap="round" stroke-linejoin="round"/>
<path d="M80.9303 482.258C80.822 482.366 95.0177 487.274 96.4613 498.934" stroke="#1B1B1B" stroke-miterlimit="10" stroke-linecap="round" stroke-linejoin="round"/>
<path d="M78.2813 476.43C85.2562 470.773 91.8563 464.835 98.0816 458.656C97.8356 458.852 117.65 469.265 119.483 487.698C111.964 491.771 104.286 495.525 96.4711 498.948C96.4681 498.942 96.4623 498.936 96.4594 498.93C91.827 490.21 68.8234 491.607 68.879 491.326" stroke="#1B1B1B" stroke-miterlimit="10" stroke-linecap="round" stroke-linejoin="round"/>
<path d="M35.6445 475.157C36.4381 474.882 44.0074 527.768 65.7694 556.165" stroke="#1B1B1B" stroke-miterlimit="10" stroke-linecap="round" stroke-linejoin="round"/>
<path d="M410.355 89.3973C404.651 87.4237 398.947 85.4501 393.243 83.4766C374.034 139.003 322.741 176.677 264.579 178.891C260.02 179.063 256.378 182.724 256.293 187.283L256.275 188.223C256.181 193.142 260.24 197.171 265.159 196.987C330.791 194.539 388.684 152.045 410.355 89.3973Z" fill="#F4D42C"/>
<path d="M410.353 89.3973C404.649 87.4237 398.945 85.4501 393.241 83.4766C374.058 138.927 322.88 176.572 264.815 178.882C260.1 179.069 256.373 182.94 256.282 187.658C256.282 187.719 256.279 187.778 256.279 187.839C256.182 193.025 260.49 197.18 265.672 196.969C331.093 194.313 388.74 151.881 410.353 89.3973Z" stroke="#1B1B1B" stroke-miterlimit="10"/>
<path d="M433.911 58.1184C435.437 58.9383 436.037 60.8651 436.055 62.6015C436.064 66.6394 433.668 70.2557 431.086 73.4064C426.287 79.3476 419.962 85.198 413.701 89.5668L413.669 89.5785C414.419 90.7937 414.928 92.2286 415.019 93.6634C415.23 96.94 413.587 100.304 410.841 102.117C407.371 104.378 403.608 103.218 399.851 102.922C395.626 102.577 391.307 101.11 387.524 99.2562C384.598 97.7833 381.673 95.7862 380.396 92.7585C378.962 89.3648 380.051 85.1717 382.695 82.6242C383.325 81.9975 384.036 81.5174 384.771 81.1016C384.428 72.9905 382.35 64.2676 378.464 57.1522C377.682 55.7379 376.83 54.3118 376.353 52.7628C375.843 51.2226 375.744 49.4452 376.481 47.9811C377.556 45.8494 380.247 44.8217 382.631 45.2873C384.985 45.7645 386.935 47.454 388.259 49.4569C389.55 51.4685 390.288 53.8052 390.941 56.098C393.737 55.4889 396.759 56.5109 398.835 58.4727C399.637 59.2194 400.317 60.1096 400.858 61.114C401.667 56.7012 402.621 51.6794 404.194 47.4687C405.763 43.2551 408.161 39.223 411.655 36.3973C412.861 35.4076 414.422 34.5438 415.927 34.986C417.13 35.3549 417.953 36.4764 418.243 37.6711C418.542 38.895 418.392 40.1308 418.211 41.3752C417.168 47.7147 414.586 53.7233 412.05 59.6499C415.362 53.7467 419.877 48.5287 425.203 44.397C426.336 43.501 427.751 42.6138 429.153 42.9535C430.333 43.261 431.159 44.3825 431.405 45.5537C431.663 46.7572 431.44 47.9811 431.165 49.1524C429.557 55.6763 425.543 61.5678 420.123 65.5179C422.515 63.6819 424.872 61.8577 427.265 60.0247C428.24 59.2838 429.206 58.5138 430.357 58.098C431.496 57.6617 432.825 57.5709 433.911 58.1184Z" fill="white"/>
<path d="M409.694 85.8671C411.354 86.6782 412.766 87.9901 413.67 89.5713C414.42 90.7865 414.93 92.2212 415.02 93.656C415.231 96.9326 413.588 100.297 410.842 102.11C407.372 104.37 403.609 103.211 399.852 102.915C395.627 102.569 391.308 101.102 387.525 99.2488C384.6 97.776 381.674 95.779 380.398 92.7513C378.963 89.3575 380.052 85.1644 382.696 82.6169C383.326 81.9903 384.037 81.51 384.772 81.0942C387.214 79.7297 390.207 79.2992 392.948 79.8936" stroke="#1B1B1B" stroke-miterlimit="10" stroke-linecap="round" stroke-linejoin="round"/>
<path d="M384.771 81.1045C384.428 72.9935 382.35 64.2704 378.464 57.155C377.682 55.7407 376.83 54.3147 376.353 52.7657C375.843 51.2255 375.744 49.4481 376.481 47.984C377.556 45.8523 380.247 44.8245 382.631 45.2901C384.985 45.7674 386.935 47.4569 388.259 49.4598C389.55 51.4715 390.288 53.8081 390.941 56.1009C393.737 55.4918 396.759 56.5138 398.835 58.4756C399.637 59.2223 400.317 60.1124 400.858 61.1168C401.702 62.616 402.199 64.332 402.352 66.0596C402.595 68.9057 401.948 71.8017 400.832 74.437" stroke="#1B1B1B" stroke-miterlimit="10" stroke-linecap="round" stroke-linejoin="round"/>
<path d="M400.859 61.1218C401.668 56.709 402.622 51.6872 404.195 47.4765C405.764 43.2629 408.162 39.2308 411.655 36.4051C412.862 35.4154 414.423 34.5516 415.928 34.9938C417.131 35.3627 417.954 36.4842 418.244 37.6789C418.543 38.9029 418.393 40.1386 418.212 41.383C417.169 47.7225 414.587 53.7311 412.051 59.6577C415.363 53.7545 419.878 48.5365 425.204 44.4049C426.337 43.5088 427.752 42.6217 429.154 42.9613C430.334 43.2688 431.16 44.3903 431.406 45.5615C431.664 46.765 431.441 47.989 431.166 49.1603C429.558 55.6842 425.544 61.5756 420.124 65.5257C422.516 63.6898 424.873 61.8655 427.266 60.0325C428.241 59.2916 429.207 58.5216 430.358 58.1058C431.5 57.6607 432.829 57.5699 433.915 58.1145C435.441 58.9344 436.041 60.8612 436.059 62.5976C436.068 66.6355 433.672 70.2518 431.09 73.4025C426.29 79.3437 419.966 85.1942 413.705 89.563" stroke="#1B1B1B" stroke-miterlimit="10" stroke-linecap="round" stroke-linejoin="round"/>
<path d="M197.014 158.792C169 161.694 144.948 103.927 140.696 62.8828C136.761 24.8811 150.204 4.015 180.657 0.858439C211.107 -2.29519 228.544 15.3733 232.479 53.375C236.728 94.419 225.027 155.89 197.014 158.792Z" fill="white" stroke="#1B1B1B" stroke-miterlimit="10"/>
<path d="M222.203 402.001C191.753 405.155 174.316 387.486 170.38 349.485C166.128 308.444 177.832 246.976 205.846 244.074C233.86 241.172 257.912 298.936 262.163 339.98C266.096 377.982 252.653 398.848 222.203 402.001Z" fill="white" stroke="#1B1B1B" stroke-miterlimit="10"/>
<path d="M349.484 232.483C308.443 236.735 246.972 225.031 244.07 197.018C241.168 169.004 298.935 144.952 339.976 140.7C377.978 136.765 398.847 150.208 402 180.661C405.154 211.111 387.486 228.545 349.484 232.483Z" fill="white" stroke="#1B1B1B" stroke-miterlimit="10"/>
<path d="M62.8827 262.168C24.8811 266.104 4.01207 252.66 0.858438 222.211C-2.29519 191.758 15.3733 174.323 53.375 170.388C94.4161 166.136 155.887 177.84 158.789 205.854C161.691 233.865 103.924 257.919 62.8827 262.168Z" fill="white" stroke="#1B1B1B" stroke-miterlimit="10"/>
<path d="M247.359 172.813C239.608 173.616 233.248 172.049 228.458 168.158C218.195 159.821 216.991 142.551 224.979 118.209C231.509 98.3092 243.274 76.7404 256.451 60.5213C269.921 43.9391 283.05 35.1956 296.599 33.793C307.351 32.6803 318.103 36.4225 328.563 44.92C352.325 64.2225 352.161 89.0415 328.074 118.698C308.124 143.256 272.483 170.21 247.359 172.813Z" fill="white" stroke="#1B1B1B" stroke-miterlimit="10"/>
<path d="M106.257 369.071C95.5077 370.184 84.7525 366.442 74.2931 357.944C50.5311 338.642 50.6951 313.819 74.7851 284.163C94.7317 259.605 130.376 232.648 155.497 230.048C163.248 229.245 169.608 230.812 174.398 234.704C196.26 252.46 172.422 310.315 146.405 342.343C132.938 358.925 119.803 367.668 106.257 369.071Z" fill="white" stroke="#1B1B1B" stroke-miterlimit="10"/>
<path d="M328.934 346.009C315.389 347.412 300.742 341.547 284.163 328.074C267.941 314.901 252.003 296.201 241.535 278.058C228.73 255.872 226.367 238.722 234.703 228.458C238.595 223.668 244.498 220.831 252.249 220.028C277.369 217.425 317.781 236.502 342.34 256.452C371.996 280.542 377.243 304.801 357.941 328.566C349.443 339.029 339.687 344.897 328.934 346.009Z" fill="white" stroke="#1B1B1B" stroke-miterlimit="10"/>
<path d="M150.604 182.832C125.477 185.433 85.0689 166.353 60.5162 146.406C44.508 133.402 35.823 120.729 33.9607 107.664C32.362 96.437 36.0485 85.2075 44.915 74.2942C53.4125 63.8319 63.1691 57.9638 73.9184 56.8511C87.4641 55.4486 102.111 61.3137 118.693 74.7833C150.718 100.797 185.909 152.538 168.153 174.396C164.261 179.187 158.358 182.024 150.607 182.826C150.607 182.832 150.604 182.832 150.604 182.832Z" fill="white" stroke="#1B1B1B" stroke-miterlimit="10"/>
<path d="M197.014 158.792C169 161.694 144.948 103.927 140.696 62.8828C136.761 24.8811 150.204 4.015 180.657 0.858439C211.107 -2.29519 228.544 15.3733 232.479 53.375C236.728 94.419 225.027 155.89 197.014 158.792Z" fill="white" stroke="#1B1B1B" stroke-miterlimit="10"/>
<path d="M222.203 402.001C191.753 405.155 174.316 387.486 170.38 349.485C166.128 308.444 177.832 246.976 205.846 244.074C233.86 241.172 257.912 298.936 262.163 339.98C266.096 377.982 252.653 398.848 222.203 402.001Z" fill="white" stroke="#1B1B1B" stroke-miterlimit="10"/>
<path d="M349.484 232.483C308.443 236.735 246.972 225.031 244.07 197.018C241.168 169.004 298.935 144.952 339.976 140.7C377.978 136.765 398.847 150.208 402 180.661C405.154 211.111 387.486 228.545 349.484 232.483Z" fill="white" stroke="#1B1B1B" stroke-miterlimit="10"/>
<path d="M62.8827 262.168C24.8811 266.104 4.01207 252.66 0.858438 222.211C-2.29519 191.758 15.3733 174.323 53.375 170.388C94.4161 166.136 155.887 177.84 158.789 205.854C161.691 233.865 103.924 257.919 62.8827 262.168Z" fill="white" stroke="#1B1B1B" stroke-miterlimit="10"/>
<path d="M247.359 172.813C239.608 173.616 233.248 172.049 228.458 168.158C218.195 159.821 216.991 142.551 224.979 118.209C231.509 98.3092 243.274 76.7404 256.451 60.5213C269.921 43.9391 283.05 35.1956 296.599 33.793C307.351 32.6803 318.103 36.4225 328.563 44.92C352.325 64.2225 352.161 89.0415 328.074 118.698C308.124 143.256 272.483 170.21 247.359 172.813Z" fill="white" stroke="#1B1B1B" stroke-miterlimit="10"/>
<path d="M106.257 369.071C95.5077 370.184 84.7525 366.442 74.2931 357.944C50.5311 338.642 50.6951 313.819 74.7851 284.163C94.7317 259.605 130.376 232.648 155.497 230.048C163.248 229.245 169.608 230.812 174.398 234.704C196.26 252.46 172.422 310.315 146.405 342.343C132.938 358.925 119.803 367.668 106.257 369.071Z" fill="white" stroke="#1B1B1B" stroke-miterlimit="10"/>
<path d="M328.934 346.009C315.389 347.412 300.742 341.547 284.163 328.074C267.941 314.901 252.003 296.201 241.535 278.058C228.73 255.872 226.367 238.722 234.703 228.458C238.595 223.668 244.498 220.831 252.249 220.028C277.369 217.425 317.781 236.502 342.34 256.452C371.996 280.542 377.243 304.801 357.941 328.566C349.443 339.029 339.687 344.897 328.934 346.009Z" fill="white" stroke="#1B1B1B" stroke-miterlimit="10"/>
<path d="M150.604 182.832C125.477 185.433 85.0689 166.353 60.5162 146.406C44.508 133.402 35.823 120.729 33.9607 107.664C32.362 96.437 36.0485 85.2075 44.915 74.2942C53.4125 63.8319 63.1691 57.9638 73.9184 56.8511C87.4641 55.4486 102.111 61.3137 118.693 74.7833C150.718 100.797 185.909 152.538 168.153 174.396C164.261 179.187 158.358 182.024 150.607 182.826C150.607 182.832 150.604 182.832 150.604 182.832Z" fill="white" stroke="#1B1B1B" stroke-miterlimit="10"/>
<path d="M258.176 277.564C300.239 246.186 308.901 186.65 277.523 144.586C246.144 102.523 186.608 93.8612 144.545 125.239C102.482 156.618 93.8199 216.154 125.198 258.217C156.576 300.28 216.112 308.942 258.176 277.564Z" fill="#F4D42C" stroke="#1B1B1B" stroke-miterlimit="10"/>
<path d="M225.801 190.506C226.914 201.243 236.518 209.047 247.256 207.934C257.993 206.821 265.797 197.217 264.684 186.479C263.571 175.742 253.967 167.938 243.229 169.051C232.492 170.164 224.688 179.768 225.801 190.506Z" fill="white" stroke="#1B1B1B" stroke-miterlimit="10" stroke-linecap="round" stroke-linejoin="round"/>
<path d="M234.364 189.619C234.988 195.627 240.361 199.993 246.369 199.373C252.378 198.752 256.744 193.376 256.123 187.367C255.502 181.359 250.126 176.993 244.118 177.613C238.109 178.234 233.74 183.61 234.364 189.619Z" fill="#1B1B1B" stroke="#1B1B1B" stroke-miterlimit="10" stroke-linecap="round" stroke-linejoin="round"/>
<path d="M204.321 192.729C205.433 203.467 197.63 213.074 186.892 214.184C176.155 215.297 166.55 207.493 165.438 196.756C164.325 186.018 172.129 176.414 182.866 175.301C193.601 174.188 203.208 181.992 204.321 192.729Z" fill="white" stroke="#1B1B1B" stroke-miterlimit="10" stroke-linecap="round" stroke-linejoin="round"/>
<path d="M195.76 193.617C196.384 199.626 192.015 205.002 186.006 205.623C179.998 206.246 174.621 201.878 174.001 195.869C173.377 189.86 177.746 184.484 183.754 183.863C189.76 183.243 195.136 187.609 195.76 193.617Z" fill="#1B1B1B" stroke="#1B1B1B" stroke-miterlimit="10" stroke-linecap="round" stroke-linejoin="round"/>
<path d="M199.373 238.154C213.018 240.649 227.109 239.191 239.952 233.952C245.615 231.648 248.004 225.976 245.667 222.31C243.331 218.617 238.23 217.628 233.987 219.332C223.929 223.434 212.895 224.576 202.208 222.623C197.707 221.826 192.916 223.835 191.385 227.932C189.857 231.999 193.359 237.059 199.373 238.154Z" fill="white" stroke="#1B1B1B" stroke-miterlimit="10" stroke-linecap="round" stroke-linejoin="round"/>
<path d="M201.742 238.548C213.853 240.352 226.233 239.069 237.718 234.823C235.89 229.886 234.066 224.95 232.242 220.016C223.25 223.342 213.554 224.346 204.07 222.935C203.291 228.135 202.518 233.342 201.742 238.548Z" fill="white" stroke="#1B1B1B" stroke-miterlimit="10" stroke-linecap="round" stroke-linejoin="round"/>
<path d="M213.205 239.334C217.723 239.287 222.227 238.822 226.66 237.94C225.635 232.778 224.607 227.615 223.582 222.453C220.113 223.144 216.584 223.507 213.047 223.545C213.097 228.807 213.149 234.072 213.205 239.334Z" fill="white" stroke="#1B1B1B" stroke-miterlimit="10" stroke-linecap="round" stroke-linejoin="round"/>
<path d="M263.342 159.911C252.786 152.631 238.175 151.718 226.793 157.624" stroke="#1B1B1B" stroke-miterlimit="10" stroke-linecap="round" stroke-linejoin="round"/>
<path d="M161.309 170.478C170.149 161.19 184.262 157.301 196.613 160.75" stroke="#1B1B1B" stroke-miterlimit="10" stroke-linecap="round" stroke-linejoin="round"/>
<path d="M247.892 179.208C248.121 181.404 250.086 183 252.282 182.772C254.478 182.543 256.074 180.578 255.845 178.382C255.617 176.186 253.652 174.59 251.459 174.819C249.263 175.047 247.667 177.012 247.892 179.208Z" fill="white"/>
<path d="M186.881 185.52C187.109 187.717 189.074 189.312 191.27 189.084C193.466 188.856 195.062 186.891 194.833 184.695C194.605 182.499 192.64 180.903 190.444 181.131C188.251 181.36 186.655 183.324 186.881 185.52Z" fill="white"/>
<path d="M25.9805 381.038C32.0066 381.378 38.0328 381.721 44.0589 382.06C47.5288 320.68 90.1277 268.512 149.578 252.843C148.041 247.008 146.501 241.172 144.963 235.336C77.926 253.004 29.8925 311.825 25.9805 381.038Z" fill="#F4D42C"/>
<path d="M25.9805 381.041C32.0066 381.381 38.0328 381.723 44.0589 382.063C47.3707 323.479 86.324 273.29 141.552 255.215C146.035 253.748 148.565 249.004 147.364 244.445C147.35 244.387 147.335 244.328 147.318 244.269C145.997 239.253 140.715 236.434 135.789 238.05C73.5777 258.468 29.7109 315.028 25.9805 381.041Z" stroke="#1B1B1B" stroke-miterlimit="10"/>
<path d="M52.9666 377.977C52.5889 378.232 52.1643 378.484 51.7427 378.689C54.706 380.531 56.6825 384.739 57.4204 388.109C58.6443 393.602 59.8215 399.139 61.0454 404.635C61.5696 406.899 62.0381 409.297 61.3324 411.496C60.6267 413.695 58.249 415.537 56.05 414.831C54.4336 414.292 53.4732 412.553 53.0574 410.89C52.5977 409.177 52.5508 407.397 51.8569 405.807C51.2068 404.223 49.6402 402.773 47.939 403.004C46.7443 403.171 45.737 404.123 45.2246 405.195C44.6653 406.307 44.5101 407.531 44.3578 408.755C43.8249 412.928 43.3359 417.101 42.803 421.273C42.5834 422.86 42.3638 424.491 41.6493 425.961C40.8909 427.384 39.459 428.588 37.8163 428.594C35.5792 428.617 33.9072 426.477 32.9175 424.418C32.6306 423.809 32.3436 423.156 32.1035 422.506C29.105 421.346 25.9192 419.358 23.7231 416.828C18.2826 416.137 11.6064 412.784 10.2799 407.514C8.95344 402.243 10.2038 396.557 12.6868 391.708C15.1729 386.859 16.2358 382.121 19.7818 377.969C16.7189 378.086 13.9606 374.885 14.5726 371.861C15.1875 368.789 18.3382 366.941 21.2693 365.861C29.3686 362.807 38.3463 362.171 46.7853 364.019C49.1307 364.549 51.4674 365.263 53.3561 366.73C55.2447 368.197 56.5829 370.546 56.3252 372.906C56.0851 374.988 54.6708 376.786 52.9666 377.977Z" fill="white"/>
<path d="M51.6969 378.695C50.2855 379.492 48.7541 380.004 47.2227 380.476" stroke="#1B1B1B" stroke-miterlimit="10" stroke-linecap="round" stroke-linejoin="round"/>
<path d="M19.7872 377.969C16.7243 378.086 13.966 374.885 14.578 371.861C15.1929 368.789 18.3436 366.941 21.2747 365.861C29.374 362.807 38.3517 362.171 46.7907 364.019C49.1361 364.549 51.4728 365.263 53.3615 366.73C55.2501 368.197 56.5883 370.546 56.3306 372.906C56.0876 374.994 54.6704 376.792 52.9662 377.983C52.5884 378.238 52.1639 378.49 51.7422 378.695" stroke="#1B1B1B" stroke-miterlimit="10" stroke-linecap="round" stroke-linejoin="round"/>
<path d="M51.6968 378.695L51.7437 378.698C54.707 380.54 56.6835 384.748 57.4214 388.118C58.6453 393.611 59.8225 399.149 61.0464 404.645C61.5706 406.908 62.0391 409.306 61.3334 411.505C60.6277 413.704 58.25 415.546 56.051 414.841C54.4346 414.302 53.4742 412.562 53.0584 410.899C52.5987 409.186 52.5518 407.406 51.8579 405.816C51.2078 404.232 49.6412 402.782 47.94 403.014C46.7453 403.181 45.738 404.132 45.2256 405.204C44.6663 406.317 44.5111 407.541 44.3588 408.765C43.8259 412.937 43.3369 417.11 42.804 421.283C42.5844 422.87 42.3648 424.501 41.6503 425.97C40.8919 427.394 39.46 428.597 37.8173 428.603C35.5802 428.626 33.9082 426.486 32.9185 424.427C32.6316 423.818 32.3446 423.165 32.1045 422.515C29.2144 414.791 30.2275 405.713 34.7779 398.873" stroke="#1B1B1B" stroke-miterlimit="10" stroke-linecap="round" stroke-linejoin="round"/>
<path d="M32.1072 422.506C29.1088 421.346 25.9229 419.358 23.7268 416.828C22.5204 415.443 21.642 413.891 21.1793 412.225C19.9641 407.417 21.15 402.091 24.3124 398.281" stroke="#1B1B1B" stroke-miterlimit="10" stroke-linecap="round" stroke-linejoin="round"/>
<path d="M23.727 416.828C18.2865 416.137 11.6103 412.785 10.2838 407.514C8.95735 402.243 10.2077 396.557 12.6908 391.708C15.1768 386.859 16.2397 382.121 19.7857 377.969" stroke="#1B1B1B" stroke-miterlimit="10" stroke-linecap="round" stroke-linejoin="round"/>
</svg>
